<?xml version="1.0" encoding="UTF-8"?>
<svg width="40px" height="42px" viewBox="0 0 40 42" version="1.1" xmlns="http://www.w3.org/2000/svg" xmlns:xlink="http://www.w3.org/1999/xlink">
    <!-- Generator: sketchtool 43.1 (39012) - http://www.bohemiancoding.com/sketch -->
    <title>17FA69D8-0216-41FC-B410-5C144F948624</title>
    <desc>Created with sketchtool.</desc>
    <defs>
        <filter x="-21.9%" y="-14.7%" width="143.8%" height="141.2%" filterUnits="objectBoundingBox" id="filter-1">
            <feOffset dx="0" dy="2" in="SourceAlpha" result="shadowOffsetOuter1"></feOffset>
            <feGaussianBlur stdDeviation="2" in="shadowOffsetOuter1" result="shadowBlurOuter1"></feGaussianBlur>
            <feColorMatrix values="0 0 0 0 0   0 0 0 0 0   0 0 0 0 0  0 0 0 0.5 0" type="matrix" in="shadowBlurOuter1" result="shadowMatrixOuter1"></feColorMatrix>
            <feMerge>
                <feMergeNode in="shadowMatrixOuter1"></feMergeNode>
                <feMergeNode in="SourceGraphic"></feMergeNode>
            </feMerge>
        </filter>
        <polygon id="path-2" points="0.0434042553 0.287914894 0.0434042553 33.2765957 31.8292194 33.2765957 31.8292194 0.287914894 0.0434042553 0.287914894"></polygon>
    </defs>
    <g id="Client-page" stroke="none" stroke-width="1" fill="none" fill-rule="evenodd">
        <g id="Client" transform="translate(-61.000000, -106.000000)">
            <g id="calendar" filter="url(#filter-1)" transform="translate(65.000000, 108.000000)">
                <mask id="mask-3" fill="white">
                    <use xlink:href="#path-2"></use>
                </mask>
                <g id="Clip-2"></g>
                <path d="M31.8044681,24.0785106 C31.5729787,21.7137021 29.8064255,19.9977872 27.5942553,19.9977872 C26.2089362,19.9977872 25.0449787,20.8376596 24.3049362,21.8576596 C23.5670638,20.8376596 22.4031064,19.9977872 21.015617,19.9977872 C18.805617,19.9977872 17.0397872,21.7137021 16.8075745,24.0785106 C16.7851489,24.2340426 16.7258298,24.7852766 16.9377872,25.6468511 C17.2546383,26.9185957 17.9802128,28.0717021 19.04,28.9868085 L23.860766,33.1094894 C23.9909787,33.2201702 24.1465106,33.2765957 24.3049362,33.2765957 C24.4626383,33.2765957 24.6210638,33.2201702 24.7512766,33.1094894 L29.5720426,28.9839149 C30.6289362,28.0745957 31.355234,26.9185957 31.6713617,25.6468511 C31.8862128,24.7852766 31.8268936,24.2340426 31.8044681,24.0785106 L31.8044681,24.0785106 Z M30.5493617,25.3668936 C30.2925532,26.4071489 29.6935745,27.3533617 28.8175319,28.1078723 L24.3078298,31.9679574 L19.7945106,28.1078723 C18.9184681,27.3533617 18.322383,26.4071489 18.0626809,25.3668936 C17.8897872,24.6666383 17.952,24.2709362 17.952,24.2709362 L17.9606809,24.2087234 C18.1017447,22.6910213 19.1984255,21.1566809 21.0185106,21.1566809 C22.2844681,21.1566809 23.3182128,22.2048936 23.7790213,23.2422553 L24.3078298,24.4344255 L24.8359149,23.2422553 C25.2967234,22.2048936 26.3282979,21.1566809 27.5964255,21.1566809 C29.4165106,21.1566809 30.5102979,22.6910213 30.6600426,24.2622553 C30.6629362,24.2651489 30.7251489,24.6608511 30.5493617,25.3668936 L30.5493617,25.3668936 Z" id="Fill-1" fill="#FFFFFF" mask="url(#mask-3)"></path>
                <path d="M20.834766,18.8085106 L26.0425532,18.8085106 L26.0425532,12.4418298 L4.05251064,12.4418298 L4.05251064,29.2240851 L15.6269787,29.2240851 L15.6269787,18.8085106 L20.834766,18.8085106 Z M20.834766,17.649617 L24.8836596,17.649617 L24.8836596,13.5978298 L20.834766,13.5978298 L20.834766,17.649617 Z M10.4155745,17.649617 L14.4680851,17.649617 L14.4680851,13.5978298 L10.4155745,13.5978298 L10.4155745,17.649617 Z M5.20778723,17.649617 L9.26029787,17.649617 L9.26029787,13.5978298 L5.20778723,13.5978298 L5.20778723,17.649617 Z M5.20778723,22.8581277 L9.26029787,22.8581277 L9.26029787,18.8085106 L5.20778723,18.8085106 L5.20778723,22.8581277 Z M5.20778723,28.0659149 L9.26029787,28.0659149 L9.26029787,24.0162979 L5.20778723,24.0162979 L5.20778723,28.0659149 Z M10.4155745,28.0659149 L14.4680851,28.0659149 L14.4680851,24.0162979 L10.4155745,24.0162979 L10.4155745,28.0659149 Z M10.4155745,22.8581277 L14.4680851,22.8581277 L14.4680851,18.8085106 L10.4155745,18.8085106 L10.4155745,22.8581277 Z M15.6269787,17.649617 L19.6758723,17.649617 L19.6758723,13.5978298 L15.6269787,13.5978298 L15.6269787,17.649617 Z" id="Fill-3" fill="#FFFFFF" mask="url(#mask-3)"></path>
                <path d="M15.0475319,32.1177021 L1.15889362,32.1177021 L1.15889362,9.54821277 L28.9361702,9.54821277 L28.9361702,17.0708936 C28.9361702,17.3899149 29.1958723,17.649617 29.515617,17.649617 C29.8346383,17.649617 30.0950638,17.3899149 30.0950638,17.0708936 L30.0950638,3.18153191 C30.0950638,2.86251064 29.8346383,2.60280851 29.515617,2.60280851 L26.622,2.60280851 L26.622,0.867361702 C26.622,0.548340426 26.3615745,0.287914894 26.0425532,0.287914894 L21.9900426,0.287914894 C21.6710213,0.287914894 21.4142128,0.548340426 21.4142128,0.867361702 L21.4142128,2.60280851 L8.68085106,2.60280851 L8.68085106,0.867361702 C8.68085106,0.548340426 8.42114894,0.287914894 8.10140426,0.287914894 L4.05251064,0.287914894 C3.72987234,0.287914894 3.47306383,0.548340426 3.47306383,0.867361702 L3.47306383,2.60280851 L0.579446809,2.60280851 C0.259702128,2.60280851 0,2.86251064 0,3.18153191 L0,32.6971489 C0,33.0168936 0.259702128,33.2765957 0.579446809,33.2765957 L15.0475319,33.2765957 C15.3665532,33.2765957 15.6269787,33.0168936 15.6269787,32.6971489 C15.6269787,32.3781277 15.3665532,32.1177021 15.0475319,32.1177021 L15.0475319,32.1177021 Z M22.5694894,4.91697872 L25.4631064,4.91697872 L25.4631064,1.44680851 L22.5694894,1.44680851 L22.5694894,4.91697872 Z M4.62834043,4.91697872 L7.52195745,4.91697872 L7.52195745,1.44680851 L4.62834043,1.44680851 L4.62834043,4.91697872 Z M1.15889362,3.76097872 L3.47306383,3.76097872 L3.47306383,5.49642553 C3.47306383,5.81544681 3.72987234,6.07514894 4.05251064,6.07514894 L8.10140426,6.07514894 C8.42114894,6.07514894 8.68085106,5.81544681 8.68085106,5.49642553 L8.68085106,3.76097872 L21.4142128,3.76097872 L21.4142128,5.49642553 C21.4142128,5.81544681 21.6710213,6.07514894 21.9900426,6.07514894 L26.0425532,6.07514894 C26.3615745,6.07514894 26.622,5.81544681 26.622,5.49642553 L26.622,3.76097872 L28.9361702,3.76097872 L28.9361702,8.39004255 L1.15889362,8.39004255 L1.15889362,3.76097872 Z" id="Fill-4" fill="#FFFFFF" mask="url(#mask-3)"></path>
            </g>
        </g>
    </g>
</svg>