<svg xmlns="http://www.w3.org/2000/svg" width="14" height="12" viewBox="0 0 14 12">
    <path fill="#FFF" fill-rule="evenodd" d="M13.977 3.688C13.762 1.55 12.117 0 10.06 0 8.77 0 7.688.759 7 1.68 6.312.76 5.23 0 3.938 0 1.882 0 .239 1.55.023 3.688c-.02.14-.076.638.121 1.417.295 1.15.97 2.191 1.956 3.018l4.486 3.726a.646.646 0 0 0 .828 0L11.9 8.121c.983-.822 1.659-1.867 1.953-3.016.2-.779.145-1.277.124-1.417zm-1.168 1.164c-.239.94-.796 1.795-1.611 2.477l-4.196 3.488-4.2-3.488c-.815-.682-1.37-1.537-1.611-2.477-.16-.633-.103-.99-.103-.99l.008-.057c.131-1.371 1.152-2.758 2.845-2.758 1.178 0 2.14.948 2.569 1.885l.492 1.077.491-1.077c.429-.937 1.389-1.885 2.569-1.885 1.693 0 2.71 1.387 2.85 2.807.003.002.06.36-.103.998z"/>
</svg>
