<?xml version="1.0" encoding="UTF-8"?>
<svg width="43px" height="34px" viewBox="0 0 43 34" version="1.1" xmlns="http://www.w3.org/2000/svg" xmlns:xlink="http://www.w3.org/1999/xlink">
    <!-- Generator: sketchtool 43.1 (39012) - http://www.bohemiancoding.com/sketch -->
    <title>832F84F1-83B7-41B9-AFD2-E863723AAB0B</title>
    <desc>Created with sketchtool.</desc>
    <defs></defs>
    <g id="Calendar" stroke="none" stroke-width="1" fill="none" fill-rule="evenodd">
        <g transform="translate(-64.000000, -246.000000)" id="user" fill="#FFFFFF">
            <g transform="translate(64.000000, 246.000000)">
                <path d="M16.6222222,6.18271111 C18.6909333,6.18271111 20.1876889,6.6844 21.0611111,7.67342222 C22.0848889,8.82715556 21.9171556,10.3088 21.9171556,10.3208889 L21.9111111,13.7677333 L22.1120889,13.9483111 C22.3274222,14.1424889 22.4483111,14.4054222 22.4483111,14.6857333 L22.4483111,16.8284889 C22.4483111,17.2682222 22.1589333,17.6490222 21.7343111,17.782 C21.4154667,17.8794667 21.2348889,18.2187111 21.3323556,18.5375556 C21.4328444,18.8564 21.7690667,19.0362222 22.0879111,18.9357333 C23.0270667,18.6463556 23.6556889,17.7993778 23.6556889,16.8284889 L23.6556889,14.6857333 C23.6556889,14.1636444 23.4637778,13.6559111 23.1215111,13.2547111 L23.1215111,10.4327111 C23.1509778,10.1199111 23.2628,8.34888889 21.9821333,6.8884 C20.8692,5.61906667 19.0656889,4.97306667 16.6222222,4.97306667 C14.1787556,4.97306667 12.3752444,5.61906667 11.2623111,6.8884 C9.98164444,8.34888889 10.0934667,10.1199111 10.1229333,10.4327111 L10.1229333,13.2547111 C9.78066667,13.6528889 9.58875556,14.1636444 9.58875556,14.6857333 L9.58875556,16.8284889 C9.58875556,17.4956444 9.8872,18.1152 10.3979556,18.5345333 C10.8875556,20.4528889 11.8939556,21.9050667 12.2656889,22.3946667 L12.2656889,24.1452889 C12.2656889,24.6379111 11.9974667,25.0927556 11.5637778,25.3284889 L6.78488889,27.9344 C6.62848889,28.0205333 6.47511111,28.1202667 6.32173333,28.2298222 C3.16124444,25.3934667 1.2104,21.2877778 1.2104,16.7604889 C1.2104,8.26048889 8.12222222,1.34866667 16.6222222,1.34866667 C25.1222222,1.34866667 32.0340444,8.26048889 32.0340444,16.7604889 C32.0340444,17.0944444 32.3060444,17.3656889 32.6392444,17.3656889 C32.9732,17.3656889 33.2444444,17.0944444 33.2444444,16.7604889 C33.2444444,7.59635556 25.7893778,0.138266667 16.6222222,0.138266667 C7.45506667,0.138266667 0,7.59635556 0,16.7604889 C0,21.5832 2.05435556,25.9571111 5.38635556,29.0148444 L5.38031111,29.0208889 L5.56013333,29.1712444 C6.96546667,30.4224444 8.58537778,31.4379111 10.3768,32.1579556 C10.4772889,32.1995111 10.5777778,32.2433333 10.6782667,32.2818667 C10.8875556,32.3649778 11.1028889,32.4352444 11.3159556,32.5062667 C11.5486667,32.5863556 11.7821333,32.6566222 12.0148444,32.7246222 C12.1833333,32.7752444 12.3488,32.8220889 12.5165333,32.8636444 C12.9388889,32.9724444 13.3665333,33.0699111 13.8009778,33.1439556 C13.8334667,33.15 13.8682222,33.1530222 13.9007111,33.1530222 C14.1900889,33.1530222 14.4469778,32.946 14.4976,32.6505778 C14.5535111,32.3204 14.3321333,32.0076 14.0042222,31.9516889 L13.9981778,31.9516889 C13.6030222,31.8836889 13.2161778,31.7952889 12.8323556,31.6978222 C12.6971111,31.6653333 12.5641333,31.6298222 12.4311556,31.5912889 C12.1742667,31.5202667 11.9204,31.4379111 11.6695556,31.3525333 C11.3688444,31.2520444 11.0704,31.1394667 10.7787556,31.0185778 C10.6548444,30.9687111 10.5332,30.9211111 10.4123111,30.8682222 C10.1614667,30.7564 9.91364444,30.6408 9.66884444,30.5168889 C9.64542222,30.5055556 9.62426667,30.4934667 9.60084444,30.4813778 C8.79844444,30.0680889 8.02475556,29.5845333 7.30168889,29.0322222 C7.32208889,29.0208889 7.34324444,29.0088 7.36364444,28.9974667 L12.1448,26.3908 C12.9653333,25.9427556 13.4760889,25.0806667 13.4760889,24.1452889 L13.4760889,21.9670222 L13.3340444,21.7985333 C13.3227111,21.7841778 12.0208889,20.2080889 11.5222222,18.0441778 L11.4663111,17.8024 L11.2623111,17.6694222 C10.9706667,17.4835556 10.7961333,17.1677333 10.7961333,16.8284889 L10.7961333,14.6857333 C10.7961333,14.4054222 10.9170222,14.1424889 11.1323556,13.9483111 L11.3333333,13.7677333 L11.3333333,10.4002222 L11.3272889,10.3208889 C11.3242667,10.3057778 11.1474667,8.8536 12.1712444,7.68475556 C13.0454222,6.68742222 14.5444444,6.18271111 16.6222222,6.18271111 L16.6222222,6.18271111 Z" id="Fill-3"></path>
                <path d="M42.1879556,25.1989651 L40.7232571,25.1989651 L40.7232571,23.2231873 C40.7232571,22.9929587 40.5323175,22.8024508 40.3020889,22.8024508 L37.9279175,22.8024508 L37.9279175,20.8207365 C37.9279175,20.5910476 37.7373016,20.4 37.507073,20.4 L34.7121651,20.4 C34.4819365,20.4 34.2908889,20.5910476 34.2908889,20.8207365 L34.2908889,25.1989651 L24.8671683,25.1989651 L24.8671683,20.8207365 C24.8671683,20.5910476 24.6765524,20.4 24.4463238,20.4 L21.6514159,20.4 C21.4211873,20.4 21.2301397,20.5910476 21.2301397,20.8207365 L21.2301397,22.7965143 L18.8559683,22.7965143 C18.6257397,22.7965143 18.4352317,22.9875619 18.4352317,23.2176825 L18.4352317,25.1930286 L17.0429587,25.1930286 C16.8132698,25.1930286 16.6222222,25.3840762 16.6222222,25.6143048 L16.6222222,28.5213587 C16.6222222,28.7515873 16.8132698,28.9426349 17.0429587,28.9426349 L18.4407365,28.9426349 L18.4407365,30.9912698 C18.4407365,31.2214984 18.6316762,31.4120063 18.861473,31.4120063 L21.2356444,31.4120063 L21.2356444,33.3877841 C21.2356444,33.6180127 21.4266921,33.8086286 21.6569206,33.8086286 L24.4518286,33.8086286 C24.6820571,33.8086286 24.8729968,33.6180127 24.8729968,33.3877841 L24.8729968,28.9371302 L34.2963937,28.9371302 L34.2963937,33.3877841 C34.2963937,33.6180127 34.4874413,33.8086286 34.7175619,33.8086286 L37.5125778,33.8086286 C37.7428063,33.8086286 37.933746,33.6180127 37.933746,33.3877841 L37.933746,31.4120063 L40.3079175,31.4120063 C40.5377143,31.4120063 40.7287619,31.2214984 40.7287619,30.9912698 L40.7287619,28.9426349 L42.1934603,28.9426349 C42.4236889,28.9426349 42.6146286,28.7515873 42.6146286,28.5213587 L42.6146286,25.6143048 C42.6092317,25.3840762 42.4181841,25.1989651 42.1879556,25.1989651 L42.1879556,25.1989651 Z M17.4642349,28.106127 L18.4407365,28.106127 L18.4407365,26.0409778 L17.4642349,26.0409778 L17.4642349,28.106127 Z M19.2826413,30.5759302 L21.2356444,30.5759302 L21.2356444,23.6440317 L19.2826413,23.6440317 L19.2826413,30.5759302 Z M22.0721524,32.9724444 L24.0255873,32.9724444 L24.0255873,21.2420127 L22.0721524,21.2420127 L22.0721524,32.9724444 Z M24.8671683,28.106127 L34.2908889,28.106127 L34.2908889,26.0409778 L24.8671683,26.0409778 L24.8671683,28.106127 Z M35.1329016,32.9724444 L37.0863365,32.9724444 L37.0863365,21.2420127 L35.1329016,21.2420127 L35.1329016,32.9724444 Z M37.9279175,30.5759302 L39.8812444,30.5759302 L39.8812444,23.6440317 L37.9279175,23.6440317 L37.9279175,30.5759302 Z M40.7232571,28.1006222 L41.767219,28.1006222 L41.767219,26.0409778 L40.7232571,26.0409778 L40.7232571,28.1006222 Z" id="dumbbell"></path>
            </g>
        </g>
    </g>
</svg>