<?xml version="1.0" encoding="UTF-8"?>
<svg width="24px" height="34px" viewBox="0 0 24 34" version="1.1" xmlns="http://www.w3.org/2000/svg" xmlns:xlink="http://www.w3.org/1999/xlink">
    <!-- Generator: sketchtool 43.1 (39012) - http://www.bohemiancoding.com/sketch -->
    <title>76BB1C85-45F5-4C92-A10F-058626B6E86D</title>
    <desc>Created with sketchtool.</desc>
    <defs>
        <polygon id="path-1" points="0.00511278195 34 23.6905865 34 23.6905865 0.012952381 0.00511278195 0.012952381"></polygon>
    </defs>
    <g id="Calendar" stroke="none" stroke-width="1" fill="none" fill-rule="evenodd">
        <g transform="translate(-67.000000, -200.000000)" id="document">
            <g transform="translate(67.000000, 200.000000)">
                <g id="Group-7">
                    <mask id="mask-2" fill="white">
                        <use xlink:href="#path-1"></use>
                    </mask>
                    <g id="Clip-5"></g>
                    <path d="M11.8234787,1.84537343 C12.1126065,1.84537343 12.3470276,2.07979449 12.3470276,2.36892231 C12.3470276,2.65805013 12.1126065,2.89247118 11.8234787,2.89247118 C11.5343509,2.89247118 11.2999298,2.65805013 11.2999298,2.36892231 C11.2999298,2.07979449 11.5343509,1.84537343 11.8234787,1.84537343" id="Fill-4" fill="#09090B" mask="url(#mask-2)"></path>
                    <path d="M17.1898546,19.1224862 L6.50073183,19.1224862 C6.23895739,19.1224862 6.0644411,19.2970025 6.0644411,19.5587769 C6.0644411,19.8205514 6.23895739,19.9950677 6.50073183,19.9950677 L17.1462256,19.9950677 C17.408,19.9950677 17.5825163,19.8205514 17.5825163,19.5587769 C17.6261454,19.3406316 17.408,19.1224862 17.1898546,19.1224862" id="Fill-1" fill="#FFFFFF" mask="url(#mask-2)"></path>
                    <path d="M17.1898546,21.5220852 L6.50073183,21.5220852 C6.23895739,21.5220852 6.0644411,21.6966015 6.0644411,21.9583759 C6.0644411,22.2201504 6.23895739,22.3946667 6.50073183,22.3946667 L17.1462256,22.3946667 C17.408,22.3946667 17.5825163,22.2201504 17.5825163,21.9583759 C17.6261454,21.7402306 17.408,21.5220852 17.1898546,21.5220852" id="Fill-2" fill="#FFFFFF" mask="url(#mask-2)"></path>
                    <path d="M17.1898546,23.9653133 L6.50073183,23.9653133 C6.23895739,23.9653133 6.0644411,24.1398296 6.0644411,24.401604 C6.0644411,24.6633784 6.23895739,24.8378947 6.50073183,24.8378947 L17.1462256,24.8378947 C17.408,24.8378947 17.5825163,24.6633784 17.5825163,24.401604 C17.6261454,24.1398296 17.408,23.9653133 17.1898546,23.9653133" id="Fill-3" fill="#FFFFFF" mask="url(#mask-2)"></path>
                    <path d="M22.818005,33.1274185 L0.872581454,33.1274185 L0.872581454,4.37585965 L2.83588972,4.37585965 L2.83588972,30.7278195 C2.83588972,30.989594 3.01040602,31.1641103 3.27218045,31.1641103 L20.418406,31.1641103 C20.6801805,31.1641103 20.8546967,30.989594 20.8546967,30.7278195 L20.8546967,4.37585965 L22.818005,4.37585965 L22.818005,33.1274185 L22.818005,33.1274185 Z M3.70847118,4.37585965 L6.50073183,4.37585965 L6.50073183,6.03376441 C6.50073183,6.29553885 6.67524812,6.47005514 6.93702256,6.47005514 L16.7099348,6.47005514 C16.9717093,6.47005514 17.1462256,6.29553885 17.1462256,6.03376441 L17.1462256,4.37585965 L19.9821153,4.37585965 L19.9821153,30.2915288 L3.70847118,30.2915288 L3.70847118,4.37585965 L3.70847118,4.37585965 Z M7.37331328,3.54690727 L9.81654135,3.54690727 C10.0783158,3.54690727 10.2528321,3.37239098 10.2528321,3.11061654 L10.2528321,2.49980952 C10.2528321,1.62722807 10.9508972,0.885533835 11.8671078,0.885533835 C12.7396892,0.885533835 13.4813835,1.583599 13.4813835,2.49980952 L13.4813835,3.11061654 C13.4813835,3.37239098 13.6558997,3.54690727 13.9176742,3.54690727 L16.3609023,3.54690727 L16.3609023,5.59747368 L7.37331328,5.59747368 L7.37331328,3.54690727 L7.37331328,3.54690727 Z M23.2542957,3.5032782 L17.1898546,3.5032782 L17.1898546,3.11061654 C17.1898546,2.84884211 17.0153383,2.67432581 16.7535639,2.67432581 L14.3103358,2.67432581 L14.3103358,2.49980952 C14.3103358,1.14730827 13.219609,0.012952381 11.8234787,0.012952381 C10.4709774,0.012952381 9.33662155,1.1036792 9.33662155,2.49980952 L9.33662155,2.67432581 L6.89339348,2.67432581 C6.63161905,2.67432581 6.45710276,2.84884211 6.45710276,3.11061654 L6.45710276,3.5032782 L0.436290727,3.5032782 C0.174516291,3.5032782 0,3.67779449 0,3.93956892 L0,33.5637093 C0,33.8254837 0.174516291,34 0.436290727,34 L23.2542957,34 C23.5160702,34 23.6905865,33.8254837 23.6905865,33.5637093 L23.6905865,3.93956892 C23.6905865,3.72142356 23.4724411,3.5032782 23.2542957,3.5032782 L23.2542957,3.5032782 Z" id="Fill-6" fill="#FFFFFF" mask="url(#mask-2)"></path>
                    <path d="M9.86017043,10.6584461 C9.99105764,10.614817 10.1655739,10.571188 10.2964612,10.571188 C10.7327519,10.571188 11.1254135,10.8329624 11.430817,11.3128822 C11.6053333,11.5746566 12.0416241,11.5746566 12.1725113,11.3128822 C12.5651729,10.6584461 13.1323509,10.4403008 13.7431579,10.6584461 C14.3103358,10.8765915 14.8338847,11.5746566 14.6157393,12.5344962 C14.2667068,14.1487719 12.3906566,15.1522406 11.8234787,15.4576441 C11.2563008,15.1958697 9.4238797,14.1487719 9.03121805,12.5344962 C8.81307268,11.5746566 9.33662155,10.8765915 9.86017043,10.6584461 L9.86017043,10.6584461 Z M11.6489624,16.3738546 C11.6925915,16.4174837 11.7798496,16.4174837 11.8234787,16.4174837 C11.8671078,16.4174837 11.9543659,16.4174837 11.997995,16.3738546 C12.1288822,16.3302256 14.9211429,15.1086115 15.4446917,12.7526416 C15.7937243,11.2692531 14.9647719,10.2221554 14.0485614,9.87312281 C13.219609,9.5677193 12.3906566,9.74223559 11.7798496,10.3966717 C11.1690426,9.74223559 10.3400902,9.5677193 9.51113784,9.87312281 C8.59492732,10.2221554 7.80960401,11.2692531 8.11500752,12.7526416 C8.68218546,15.1086115 11.5180752,16.2865965 11.6489624,16.3738546 L11.6489624,16.3738546 Z" id="Fill-8" fill="#FFFFFF" mask="url(#mask-2)"></path>
                </g>
            </g>
        </g>
    </g>
</svg>