<svg xmlns="http://www.w3.org/2000/svg" width="32" height="32" viewBox="0 0 32 32">
    <g fill="none" fill-rule="evenodd">
        <path fill="#FFF" fill-rule="nonzero" d="M26.8 5.867c-.834-.447-6.017-3.238-8.866-5.025A2.652 2.652 0 0 0 16 0c-.763 0-1.448.326-1.934.842C11.216 2.63 6.034 5.42 5.2 5.867H0V32h32V5.867h-5.2zm-9.614-4.265c.002.003.002.006.005.009.13.145.272.366.35.648.007.024.017.047.023.072A1.602 1.602 0 0 1 16 4.267a1.602 1.602 0 0 1-1.563-1.936c.005-.025.015-.047.022-.07.078-.284.22-.504.35-.65l.005-.009A1.592 1.592 0 0 1 16 1.067c.472 0 .892.21 1.186.535zm-3.85.933A2.67 2.67 0 0 0 16 5.333a2.67 2.67 0 0 0 2.664-2.798c1.917 1.14 4.286 2.452 5.898 3.332H7.439c1.612-.88 3.981-2.192 5.898-3.332zM5.334 6.933h25.6V9.6H1.067V6.933h4.266zm-4.266 24V10.667h29.866v20.266H1.067z"/>
        <path fill="#FF1053" d="M6.97 22.997a.936.936 0 0 0 .767-.42v.42c0 .553.436 1.002.97 1.002.346 0 .635-.2.81-.484v.484c0 .551.436 1.001.967 1.001.534 0 .97-.45.97-1.001V20.79h9.091v3.209c0 .551.436 1.001.97 1.001.536 0 .971-.45.971-1.001v-.484c.171.284.464.484.805.484.536 0 .97-.449.97-1.002v-.42c.18.25.45.42.768.42.535 0 .971-.448.971-1v-4c0-.55-.436-1-.97-1-.318 0-.589.175-.768.424v-.425c0-.546-.435-.996-.971-.996-.34 0-.634.196-.805.479V16c0-.551-.435-1-.97-1-.535 0-.97.449-.97 1v2.789h-9.091V16c0-.551-.437-1-.971-1-.531 0-.966.449-.966 1v.479c-.176-.283-.465-.479-.81-.479-.535 0-.971.45-.971.996v.425c-.175-.248-.445-.425-.767-.425-.535 0-.97.45-.97 1.002v3.998c0 .553.435 1.002.97 1.002z"/>
    </g>
</svg>
