<?xml version="1.0" encoding="UTF-8"?>
<svg width="36px" height="46px" viewBox="0 0 36 46" version="1.1" xmlns="http://www.w3.org/2000/svg" xmlns:xlink="http://www.w3.org/1999/xlink">
    <!-- Generator: sketchtool 43.1 (39012) - http://www.bohemiancoding.com/sketch -->
    <title>D1BA80F0-C0D3-433D-8640-F42CF14A27E7</title>
    <desc>Created with sketchtool.</desc>
    <defs></defs>
    <g id="Calendar" stroke="none" stroke-width="1" fill="none" fill-rule="evenodd">
        <g transform="translate(-64.000000, -12.000000)" id="Group-3">
            <g>
                <g id="sportive-practice-day-reminder-calendar-page-interface-symbol-with-a-dumbbell" transform="translate(64.000000, 12.000000)">
                    <path d="M32.5605,9.8285 L28.5465,9.8285 L18.903,1.6205 C18.9555,1.4915 18.99,1.3445 18.99,1.193 C18.99,0.554 18.474,0.038 17.8365,0.038 C17.1975,0.038 16.6815,0.554 16.6815,1.193 C16.6815,1.3445 16.7175,1.4915 16.77,1.6205 L7.131,9.8285 L3.111,9.8285 C1.395,9.8285 0,11.2235 0,12.941 L0,42.383 C0,44.1065 1.395,45.5015 3.111,45.5015 L29.0385,45.5015 L35.6715,38.8685 L35.6715,12.941 C35.6715,11.2235 34.272,9.8285 32.5605,9.8285 L32.5605,9.8285 Z M29.514,13.814 C29.514,14.7395 28.764,15.4895 27.8385,15.4895 C26.9115,15.4895 26.1615,14.7395 26.1615,13.814 C26.1615,12.887 26.9115,12.137 27.8385,12.137 C28.764,12.137 29.514,12.887 29.514,13.814 L29.514,13.814 Z M17.256,2.159 C17.4255,2.264 17.619,2.3405 17.8365,2.3405 C18.0525,2.3405 18.246,2.264 18.4215,2.159 L27.4335,9.8285 L8.244,9.8285 L17.256,2.159 Z M24.516,13.814 C24.516,14.7395 23.766,15.4895 22.8345,15.4895 C21.9135,15.4895 21.1635,14.7395 21.1635,13.814 C21.1635,12.887 21.9135,12.137 22.8345,12.137 C23.766,12.137 24.516,12.887 24.516,13.814 L24.516,13.814 Z M19.512,13.814 C19.512,14.7395 18.762,15.4895 17.8365,15.4895 C16.9095,15.4895 16.1595,14.7395 16.1595,13.814 C16.1595,12.887 16.9095,12.137 17.8365,12.137 C18.762,12.137 19.512,12.887 19.512,13.814 L19.512,13.814 Z M14.508,13.814 C14.508,14.7395 13.764,15.4895 12.8385,15.4895 C11.907,15.4895 11.157,14.7395 11.157,13.814 C11.157,12.887 11.907,12.137 12.8385,12.137 C13.764,12.137 14.508,12.887 14.508,13.814 L14.508,13.814 Z M7.8345,12.137 C8.76,12.137 9.51,12.887 9.51,13.814 C9.51,14.7395 8.76,15.4895 7.8345,15.4895 C6.9075,15.4895 6.1575,14.7395 6.1575,13.814 C6.1575,12.887 6.9075,12.137 7.8345,12.137 L7.8345,12.137 Z M33.972,38.165 L33.621,38.516 L30.9555,38.516 C29.7075,38.516 28.6875,39.536 28.6875,40.784 L28.6875,43.4495 L28.3365,43.802 L3.111,43.802 C2.3325,43.802 1.6995,43.169 1.6995,42.383 L1.6995,17.4695 L33.972,17.4695 L33.972,38.165 Z" id="Fill-1" fill="#FFFFFF"></path>
                    <path d="M6.6615,34.4675 C7.0605,34.4675 7.395,34.262 7.611,33.9635 L7.611,34.4675 C7.611,35.1305 8.151,35.669 8.8125,35.669 C9.24,35.669 9.597,35.429 9.8145,35.0885 L9.8145,35.669 C9.8145,36.3305 10.353,36.8705 11.01,36.8705 C11.6715,36.8705 12.2115,36.3305 12.2115,35.669 L12.2115,31.8185 L23.4615,31.8185 L23.4615,35.669 C23.4615,36.3305 24,36.8705 24.6615,36.8705 C25.3245,36.8705 25.863,36.3305 25.863,35.669 L25.863,35.0885 C26.0745,35.429 26.4375,35.669 26.859,35.669 C27.522,35.669 28.0605,35.1305 28.0605,34.4675 L28.0605,33.9635 C28.2825,34.262 28.617,34.4675 29.01,34.4675 C29.6715,34.4675 30.2115,33.929 30.2115,33.266 L30.2115,28.4675 C30.2115,27.806 29.6715,27.266 29.01,27.266 C28.617,27.266 28.2825,27.4775 28.0605,27.776 L28.0605,27.266 C28.0605,26.6105 27.522,26.0705 26.859,26.0705 C26.4375,26.0705 26.0745,26.306 25.863,26.645 L25.863,26.0705 C25.863,25.409 25.3245,24.8705 24.6615,24.8705 C24,24.8705 23.4615,25.409 23.4615,26.0705 L23.4615,29.417 L12.2115,29.417 L12.2115,26.0705 C12.2115,25.409 11.6715,24.8705 11.01,24.8705 C10.353,24.8705 9.8145,25.409 9.8145,26.0705 L9.8145,26.645 C9.597,26.306 9.24,26.0705 8.8125,26.0705 C8.151,26.0705 7.611,26.6105 7.611,27.266 L7.611,27.776 C7.395,27.4775 7.0605,27.266 6.6615,27.266 C6,27.266 5.4615,27.806 5.4615,28.4675 L5.4615,33.266 C5.4615,33.929 6,34.4675 6.6615,34.4675 L6.6615,34.4675 Z" id="Fill-2" fill="#FF1053"></path>
                </g>
            </g>
        </g>
    </g>
</svg>