<svg xmlns="http://www.w3.org/2000/svg" width="18" height="9" viewBox="0 0 18 9">
    <path fill="#FFF" fill-rule="evenodd" d="M17.705 3.221H16.69V1.895a.29.29 0 0 0-.291-.282h-1.645V.283A.29.29 0 0 0 14.463 0h-1.936a.29.29 0 0 0-.291.282v2.94H5.71V.281A.29.29 0 0 0 5.418 0H3.483a.29.29 0 0 0-.292.282V1.61H1.547a.29.29 0 0 0-.291.282v1.326H.29A.29.29 0 0 0 0 3.5V5.45a.29.29 0 0 0 .291.283h.968v1.375a.29.29 0 0 0 .292.282h1.644v1.327A.29.29 0 0 0 3.487 9h1.935a.29.29 0 0 0 .292-.282V5.73h6.526v2.988A.29.29 0 0 0 12.53 9h1.936a.29.29 0 0 0 .291-.282V7.39h1.645a.29.29 0 0 0 .291-.282V5.734h1.014A.29.29 0 0 0 18 5.45V3.5a.292.292 0 0 0-.295-.279zM.583 5.172h.676V3.786H.583v1.386zm1.26 1.658h1.352V2.177H1.842V6.83zM3.773 8.44h1.353V.565H3.774V8.44zM5.71 5.172h6.526V3.786H5.71v1.386zm7.109 3.267h1.353V.565h-1.353V8.44zm1.935-1.609h1.353V2.177h-1.353V6.83zM16.69 5.17h.723V3.786h-.723V5.17z"/>
</svg>
