<svg xmlns="http://www.w3.org/2000/svg" xmlns:xlink="http://www.w3.org/1999/xlink" width="20" height="20" viewBox="0 0 20 20">
    <defs>
        <path id="a" d="M.03 19.488h19.537V.206H.031z"/>
    </defs>
    <g fill="none" fill-rule="evenodd">
        <mask id="b" fill="#fff">
            <use xlink:href="#a"/>
        </mask>
        <path fill="#3A3E3B" d="M19.197 7.371c-.028-.168-.23-.312-.397-.3l-1.979.134c-.106-.27-.218-.537-.338-.801l1.61-1.376c.172-.149.146-.431 0-.581l-1.608-1.659c-.17-.172-.41-.138-.581 0l-1.495 1.21a7.972 7.972 0 0 0-1.172-.751l.715-1.623c.113-.254.022-.502-.246-.6-.723-.267-1.447-.532-2.17-.798a.406.406 0 0 0-.462.188c-.31.657-.621 1.312-.932 1.968a6.66 6.66 0 0 0-.701 0L8.514.412C8.439.258 8.209.166 8.049.224c-.723.262-1.446.527-2.17.791-.268.098-.356.349-.246.603l.711 1.623a8.114 8.114 0 0 0-1.174.747L3.678 2.776c-.172-.138-.413-.172-.581 0-.537.553-1.074 1.103-1.61 1.657-.15.15-.173.432 0 .579.534.46 1.069.919 1.606 1.378-.12.264-.232.533-.34.801l-1.98-.138c-.166-.012-.368.132-.397.302l-.368 2.28c-.046.28.11.493.395.52l1.776.173c.01.37.047.741.107 1.108l-1.519.542c-.212.077-.346.277-.286.506l.58 2.237c.05.196.299.37.506.287.769-.319 1.538-.637 2.31-.954.161.254.336.5.526.735l-1.23 1.587c-.162.208-.164.493.082.645l1.97 1.208c.206.126.43.028.56-.146l1.148-1.539c.429.184.87.328 1.322.434l-.29 1.753c-.048.28.112.491.394.52.768.08 1.533.156 2.298.236.17.016.365-.138.397-.303l.414-2.131c.23-.046.457-.104.681-.175l1.387 1.681c.11.134.356.16.496.064.637-.434 1.273-.87 1.907-1.304.239-.162.253-.428.085-.645-.365-.465-.728-.93-1.09-1.394.354-.314.675-.661.968-1.036.696.26 1.394.52 2.09.778.185.068.33.002.416-.118a.437.437 0 0 0 .09-.17l.583-2.235c.06-.228-.075-.428-.287-.504l-1.517-.547c.062-.367.099-.735.11-1.106.592-.058 1.185-.114 1.778-.17.284-.028.44-.24.394-.52l-.362-2.28zm-3.788 6.18c-.375.52-.825.98-1.324 1.384-.189.153-.127.419 0 .58l1.06 1.356c-.413.284-.828.566-1.24.849a728.77 728.77 0 0 0-1.325-1.603c-.086-.104-.272-.148-.398-.104a7.03 7.03 0 0 1-1.172.297c-.128.022-.26.16-.287.286l-.394 2.035-1.495-.154.284-1.707c.035-.204-.05-.46-.286-.504a7.122 7.122 0 0 1-1.823-.583c-.218-.107-.418-.042-.56.148L5.33 17.329l-1.266-.775 1.153-1.488c.138-.177.175-.41 0-.581-.32-.35-.576-.743-.823-1.148-.088-.142-.294-.259-.465-.188-.731.302-1.462.602-2.193.905-.124-.473-.247-.947-.369-1.422l1.493-.535a.42.42 0 0 0 .286-.505 7.095 7.095 0 0 1-.152-1.637c.006-.238-.19-.388-.409-.41-.57-.054-1.142-.11-1.71-.167l.24-1.482c.635.046 1.27.09 1.905.134.19.015.334-.136.394-.3.155-.425.339-.838.53-1.246.073-.158.082-.369-.065-.497L2.372 4.695l1.05-1.076c.484.393.969.788 1.454 1.18.184.152.394.156.579 0a7.232 7.232 0 0 1 1.627-1.013c.217-.1.228-.373.146-.561l-.692-1.579c.471-.172.94-.344 1.413-.515l.883 1.877c.056.12.222.215.355.203a6.89 6.89 0 0 1 1.208.002.398.398 0 0 0 .354-.205c.297-.624.591-1.25.887-1.875.471.173.942.345 1.41.52-.232.524-.462 1.051-.694 1.578-.084.188-.073.46.146.56a7.145 7.145 0 0 1 1.625 1.018c.184.157.394.15.579 0l1.456-1.178 1.046 1.078L15.694 6c-.147.126-.137.338-.063.497.188.409.37.823.525 1.246.06.164.204.314.394.303.636-.044 1.27-.089 1.905-.13.08.492.159.987.237 1.481l-1.711.163c-.22.02-.414.17-.41.41a7.133 7.133 0 0 1-.155 1.637.424.424 0 0 0 .287.505l1.49.537c-.124.479-.25.957-.375 1.436l-1.947-.723c-.18-.066-.36.048-.462.19zm-5.652-9.64c-.002 0-.002 0 0 0-2.02.109-3.94 1.555-4.841 3.322-1.028 2.011-.603 4.387.827 6.08 1.583 1.87 4.313 2.325 6.547 1.452 1.848-.725 2.933-2.418 3.148-4.347.193-1.716-.256-3.537-1.47-4.802-1.087-1.131-2.672-1.654-4.21-1.704zm1.487 5.233c.002.006.002.01.002.016-.026-.032-.004-.028-.002-.016z" mask="url(#b)"/>
        <path fill="#FFF" stroke="#3A3E3B" d="M9.757 3.912c-.002 0-.002 0 0 0-2.02.108-3.94 1.554-4.841 3.321-1.028 2.011-.603 4.387.827 6.08 1.583 1.87 4.313 2.325 6.547 1.452 1.848-.725 2.933-2.418 3.148-4.347.193-1.716-.256-3.537-1.47-4.802-1.087-1.131-2.672-1.654-4.21-1.704z" mask="url(#b)"/>
        <path fill="#FF1053" d="M9.867 4.912c-1.628.087-3.444 1.245-4.17 2.67-.829 1.62-.58 3.702.572 5.066 1.275 1.506 3.839 1.711 5.639 1.008 1.489-.584 2.558-1.786 2.732-3.34.155-1.383-.402-3.012-1.38-4.03-.876-.913-2.153-1.334-3.393-1.374z" mask="url(#b)"/>
        <path fill="#FFF" d="M13.568 12.912c-1.44 1.653-4.235 1.895-6.074.818a4.73 4.73 0 0 1-1.863-2.074c1.218-.25 2.43-.94 2.868-2.131.029-.072.053-.144.083-.213.006.013.012.024.016.037.044.124.074.254.104.382.146.661.212 1.344.274 2.02.03.328.056.658.078.989.017.264.387.263.41.002h.003c-.002-.006-.002-.01-.002-.016L9.77 8.63l.08 1.136c.012.17.218.28.348.144.145-.146.253-.332.349-.513.05-.093.094-.192.136-.292.004.132.01.263.012.395.008.306.012.613.014.919 0 .136-.048.397.03.517a.21.21 0 0 0 .233.094c.242-.062.312-.639.364-.831.016-.052.028-.104.044-.158.03.116.07.23.125.338.176.35.557.29.887.298.731.015 1.464.02 2.195.025-.146.817-.48 1.59-1.02 2.21z" mask="url(#b)"/>
        <path fill="#FFF" d="M14.646 10.294c-.71-.006-1.42-.01-2.132-.024a14.354 14.354 0 0 1-.595-.018.076.076 0 0 1-.024-.016.615.615 0 0 1-.078-.159c-.082-.222-.11-.466-.136-.7-.016-.13.004-.375-.109-.471-.051-.044-.128-.08-.198-.052-.142.054-.156.17-.186.3-.024.107-.054.213-.08.319a17.553 17.553 0 0 0-.056-1.304c-.013-.128-.022-.339-.186-.373-.285-.058-.293.29-.337.473a4.165 4.165 0 0 1-.31.887c-.079-1.126-.157-2.253-.233-3.38-.02-.262-.389-.262-.41-.001h-.003v.016c-.112 1.514-.224 3.028-.338 4.543a11.228 11.228 0 0 0-.166-.841c-.079-.315-.377-1.032-.76-.53-.068.087-.108.193-.146.293a3.29 3.29 0 0 1-.3.641c-.253.39-.637.673-1.04.894a4.928 4.928 0 0 1-1.354.475c-.32-.866-.403-1.82-.177-2.723.485-1.945 2.469-3.704 4.463-3.812 1.892.062 3.769.986 4.512 2.81.342.842.477 1.813.379 2.753z" mask="url(#b)"/>
    </g>
</svg>
