<?xml version="1.0" encoding="UTF-8"?>
<svg width="33px" height="34px" viewBox="0 0 33 34" version="1.1" xmlns="http://www.w3.org/2000/svg" xmlns:xlink="http://www.w3.org/1999/xlink">
    <!-- Generator: sketchtool 43.1 (39012) - http://www.bohemiancoding.com/sketch -->
    <title>8D5A8D61-6A2F-478C-B300-3AB7A03E3697</title>
    <desc>Created with sketchtool.</desc>
    <defs>
        <polygon id="path-1" points="32.0504896 33.9575 0.0425 33.9575 0.0425 0 16.0464948 0 32.0504896 0 32.0504896 33.9575"></polygon>
    </defs>
    <g id="Calendar" stroke="none" stroke-width="1" fill="none" fill-rule="evenodd">
        <g transform="translate(-65.000000, -154.000000)" id="notebook">
            <g transform="translate(65.000000, 154.000000)">
                <g id="Group-4">
                    <mask id="mask-2" fill="white">
                        <use xlink:href="#path-1"></use>
                    </mask>
                    <g id="Clip-2"></g>
                    <path d="M31.5569583,20.24275 L29.94125,18.629875 C29.2825,17.9682917 28.2086667,17.971125 27.550625,18.629875 L18.8289167,27.350875 L17.6282917,31.7588333 L17.3322083,32.0520833 C17.1133333,32.2730833 17.1133333,32.62725 17.329375,32.8489583 L17.3265417,32.8602917 L17.337875,32.8574583 C17.448375,32.965125 17.5893333,33.020375 17.733125,33.020375 C17.8769167,33.020375 18.0235417,32.965125 18.13475,32.854625 L18.428,32.5585417 L22.83525,31.3579167 L31.5569583,22.6362083 C32.215,21.974625 32.215,20.9043333 31.5569583,20.24275 L31.5569583,20.24275 Z M20.1379167,27.644125 L25.9427083,21.8393333 L28.3475,24.244125 L22.542,30.0489167 L20.1379167,27.644125 Z M19.6257917,28.73425 L21.4490417,30.5610417 L18.9394167,31.243875 L19.6257917,28.73425 Z M30.7544167,21.8336667 L29.1465,23.4444167 L26.7424167,21.039625 L28.349625,19.4295833 C28.5685,19.2135417 28.9226667,19.2135417 29.1415417,19.4295833 L30.75725,21.0452917 C30.9732917,21.2613333 30.9732917,21.6183333 30.7544167,21.8336667 L30.7544167,21.8336667 Z" id="Fill-1" fill="#FFFFFF" mask="url(#mask-2)"></path>
                    <path d="M5.66666667,1.13475 L24.932625,1.13475 L24.932625,17 L26.067375,17 L26.067375,0 L0,0 L0,34 L14.1666667,34 L14.1666667,32.86525 L5.66666667,32.86525 L5.66666667,1.13475 Z M1.13475,32.86525 L4.53191667,32.86525 L4.53191667,1.13475 L1.13475,1.13475 L1.13475,32.86525 Z" id="Fill-3" fill="#FFFFFF" mask="url(#mask-2)"></path>
                </g>
                <path d="M8.5,13.5992917 L22.0992917,13.5992917 L22.0992917,5.66666667 L8.5,5.66666667 L8.5,13.5992917 Z M9.63475,12.4680833 L20.9680833,12.4680833 L20.9680833,6.80141667 L9.63475,6.80141667 L9.63475,12.4680833 Z" id="Fill-5" fill="#FFFFFF"></path>
                <polygon id="Fill-6" fill="#FFFFFF" points="11.3333333 9.067375 19.2659583 9.067375 19.2659583 7.932625 11.3333333 7.932625"></polygon>
                <polygon id="Fill-7" fill="#FFFFFF" points="11.3333333 11.3333333 19.2659583 11.3333333 19.2659583 10.1985833 11.3333333 10.1985833"></polygon>
            </g>
        </g>
    </g>
</svg>